# xmcd
#
# Track frame offsets: 
#        150
#        22162
#        41862
#        62682
#        84802
#        110900
#        133077
#        147032
#        158412
#        179167
#
# Disc length: 2675 seconds
#
# Revision: 0
# Processed by: cddbd v1.4PL0 Copyright (c) Steve Scherf et al.
# Submitted via: ExactAudioCopy v0.90b4
#
DISCID=8b0a710a
DTITLE=Ben - Ill-Fated and Magical
DYEAR=2002
DGENRE=Country
TTITLE0=ill-fated and magical
TTITLE1=next town
TTITLE2=october 01
TTITLE3=shovel
TTITLE4=good heart rock´n´roll
TTITLE5=come down
TTITLE6=automatic modell
TTITLE7=mot that gone
TTITLE8=crooked fence
TTITLE9=belltower
EXTD=
EXTT0=
EXTT1=
EXTT2=
EXTT3=
EXTT4=
EXTT5=
EXTT6=
EXTT7=
EXTT8=
EXTT9=
PLAYORDER=
